<svg width="26" height="26" viewBox="0 0 26 26" fill="none" xmlns="http://www.w3.org/2000/svg">
<path d="M7.86462 7.25393C8.15751 6.96104 8.15751 6.48617 7.86462 6.19327C7.57173 5.90038 7.09685 5.90038 6.80396 6.19327L7.86462 7.25393ZM1.60915 24.25C1.19493 24.25 0.859148 24.5858 0.859148 25C0.859148 25.4143 1.19493 25.75 1.60915 25.75L1.60915 24.25ZM8.94394 25.75C9.35815 25.75 9.69394 25.4143 9.69394 25C9.69394 24.5858 9.35815 24.25 8.94394 24.25V25.75ZM14.9417 1.94459L19.4481 6.45095L20.5088 5.39029L16.0024 0.883928L14.9417 1.94459ZM7.06164 18.8374L2.55527 14.331L1.49461 15.3917L6.00098 19.8981L7.06164 18.8374ZM13.0857 15.6417L21.0716 23.6276L22.1323 22.5669L14.1464 14.5811L13.0857 15.6417ZM24.4893 20.2099L16.5034 12.2241L15.4428 13.2847L23.4286 21.2706L24.4893 20.2099ZM13.0429 2.07562L13.174 1.94459L12.1133 0.883928L11.9823 1.01496L13.0429 2.07562ZM1.60915 25.75L8.94394 25.75V24.25L1.60915 24.25L1.60915 25.75ZM13.0857 14.5811L10.2505 17.4164L11.3111 18.477L14.1464 15.6417L13.0857 14.5811ZM10.2505 17.4164L8.8294 18.8374L9.89006 19.8981L11.3111 18.477L10.2505 17.4164ZM2.55527 12.5633L3.97632 11.1422L2.91566 10.0816L1.49461 11.5026L2.55527 12.5633ZM3.97632 11.1422L7.86462 7.25393L6.80396 6.19327L2.91566 10.0816L3.97632 11.1422ZM11.3111 17.4164L3.97632 10.0816L2.91566 11.1422L10.2505 18.477L11.3111 17.4164ZM19.4481 8.21872L17.9028 9.76396L18.9635 10.8246L20.5088 9.27938L19.4481 8.21872ZM17.9028 9.76396L13.0857 14.5811L14.1464 15.6417L18.9635 10.8246L17.9028 9.76396ZM11.9823 4.90405L17.9028 10.8246L18.9635 9.76396L13.0429 3.84339L11.9823 4.90405ZM11.9823 1.01496C10.9083 2.0889 10.9083 3.83011 11.9823 4.90405L13.0429 3.84339C12.5548 3.35523 12.5548 2.56378 13.0429 2.07562L11.9823 1.01496ZM24.4893 23.6276C25.433 22.6838 25.433 21.1537 24.4893 20.2099L23.4286 21.2706C23.7866 21.6286 23.7866 22.209 23.4286 22.5669L24.4893 23.6276ZM6.00098 19.8981C7.07492 20.972 8.81612 20.972 9.89006 19.8981L8.8294 18.8374C8.34125 19.3256 7.54979 19.3256 7.06164 18.8374L6.00098 19.8981ZM19.4481 6.45095C19.9362 6.9391 19.9362 7.73056 19.4481 8.21872L20.5088 9.27938C21.5827 8.20543 21.5827 6.46423 20.5088 5.39029L19.4481 6.45095ZM16.0024 0.883928C14.9285 -0.190014 13.1872 -0.190014 12.1133 0.883928L13.174 1.94459C13.6621 1.45643 14.4536 1.45643 14.9417 1.94459L16.0024 0.883928ZM21.0716 23.6276C22.0154 24.5714 23.5455 24.5714 24.4893 23.6276L23.4286 22.5669C23.0706 22.9249 22.4902 22.9249 22.1323 22.5669L21.0716 23.6276ZM2.55527 14.331C2.06712 13.8429 2.06712 13.0514 2.55527 12.5633L1.49461 11.5026C0.420671 12.5766 0.420672 14.3178 1.49461 15.3917L2.55527 14.331Z" fill="#F600DD"/>
</svg>
