<svg width="136" height="154" viewBox="0 0 136 154" fill="none" xmlns="http://www.w3.org/2000/svg">
<g filter="url(#filter0_d_362_1487)">
<path d="M35.9167 77L33.4755 75.2563C32.7076 76.3313 32.7333 77.782 33.5388 78.8291L35.9167 77ZM68 32.0833L70.4412 30.3396C69.8781 29.5512 68.9688 29.0833 68 29.0833C67.0311 29.0833 66.1219 29.5512 65.5588 30.3396L68 32.0833ZM100.083 77L102.461 78.8291C103.267 77.782 103.292 76.3313 102.525 75.2563L100.083 77ZM68 118.708L65.6221 120.537C66.19 121.276 67.0686 121.708 68 121.708C68.9314 121.708 69.81 121.276 70.3779 120.537L68 118.708ZM91.0662 59.2146C90.1032 57.8664 88.2295 57.5541 86.8813 58.5171C85.533 59.4802 85.2208 61.3538 86.1838 62.702L91.0662 59.2146ZM77.0171 49.8687C77.9801 51.2169 79.8538 51.5292 81.202 50.5662C82.5503 49.6032 82.8625 47.7295 81.8995 46.3813L77.0171 49.8687ZM38.3579 78.7437L70.4412 33.827L65.5588 30.3396L33.4755 75.2563L38.3579 78.7437ZM97.7054 75.1709L65.6221 116.879L70.3779 120.537L102.461 78.8291L97.7054 75.1709ZM70.3779 116.879L38.2945 75.1709L33.5388 78.8291L65.6221 120.537L70.3779 116.879ZM99.5611 74.0458C74.5442 78.4679 60.9179 78.3263 36.4334 74.0448L35.3999 79.9552C60.5494 84.353 74.8793 84.5016 100.606 79.9542L99.5611 74.0458ZM65 32.0833V118.708H71V32.0833H65ZM86.1838 62.702L97.6421 78.7437L102.525 75.2563L91.0662 59.2146L86.1838 62.702ZM65.5588 33.827L77.0171 49.8687L81.8995 46.3813L70.4412 30.3396L65.5588 33.827Z" fill="url(#paint0_linear_362_1487)"/>
</g>
<defs>
<filter id="filter0_d_362_1487" x="0.916656" y="-2.91667" width="134.167" height="156.625" filterUnits="userSpaceOnUse" color-interpolation-filters="sRGB">
<feFlood flood-opacity="0" result="BackgroundImageFix"/>
<feColorMatrix in="SourceAlpha" type="matrix" values="0 0 0 0 0 0 0 0 0 0 0 0 0 0 0 0 0 0 127 0" result="hardAlpha"/>
<feOffset/>
<feGaussianBlur stdDeviation="16"/>
<feColorMatrix type="matrix" values="0 0 0 0 0.741176 0 0 0 0 0.188235 0 0 0 0 0.94902 0 0 0 0.5 0"/>
<feBlend mode="normal" in2="BackgroundImageFix" result="effect1_dropShadow_362_1487"/>
<feBlend mode="normal" in="SourceGraphic" in2="effect1_dropShadow_362_1487" result="shape"/>
</filter>
<linearGradient id="paint0_linear_362_1487" x1="35.9167" y1="32.0833" x2="118.782" y2="93.4651" gradientUnits="userSpaceOnUse">
<stop stop-color="#9A4DFF"/>
<stop offset="1" stop-color="#F600DD"/>
</linearGradient>
</defs>
</svg>
