<svg width="20" height="25" viewBox="0 0 20 25" fill="none" xmlns="http://www.w3.org/2000/svg">
<path d="M1.66663 13L1.05633 12.5641C0.864363 12.8328 0.870792 13.1955 1.07216 13.4573L1.66663 13ZM9.99996 1.33334L10.6103 0.897415C10.4695 0.700318 10.2422 0.583344 9.99996 0.583344C9.75775 0.583344 9.53044 0.700318 9.38966 0.897415L9.99996 1.33334ZM18.3333 13L18.9278 13.4573C19.1291 13.1955 19.1356 12.8328 18.9436 12.5641L18.3333 13ZM9.99996 23.8333L9.40549 24.2906C9.54746 24.4752 9.76711 24.5833 9.99996 24.5833C10.2328 24.5833 10.4525 24.4752 10.5944 24.2906L9.99996 23.8333ZM15.9674 8.39741C15.7266 8.06036 15.2582 7.98229 14.9212 8.22304C14.5841 8.4638 14.506 8.93221 14.7468 9.26927L15.9674 8.39741ZM12.3658 5.93594C12.6066 6.273 13.075 6.35107 13.4121 6.11031C13.7491 5.86955 13.8272 5.40114 13.5864 5.06408L12.3658 5.93594ZM2.27693 13.4359L10.6103 1.76927L9.38966 0.897415L1.05633 12.5641L2.27693 13.4359ZM17.7388 12.5427L9.40549 23.3761L10.5944 24.2906L18.9278 13.4573L17.7388 12.5427ZM10.5944 23.3761L2.26109 12.5427L1.07216 13.4573L9.40549 24.2906L10.5944 23.3761ZM18.2027 12.2615C11.7014 13.4107 8.15866 13.3739 1.79582 12.2612L1.53744 13.7388C8.06655 14.8805 11.7852 14.9191 18.4638 13.7386L18.2027 12.2615ZM9.24996 1.33334V23.8333H10.75V1.33334H9.24996ZM14.7468 9.26927L17.723 13.4359L18.9436 12.5641L15.9674 8.39741L14.7468 9.26927ZM9.38966 1.76927L12.3658 5.93594L13.5864 5.06408L10.6103 0.897415L9.38966 1.76927Z" fill="url(#paint0_linear_607_473)"/>
<defs>
<linearGradient id="paint0_linear_607_473" x1="1.66663" y1="1.33334" x2="23.1901" y2="17.2767" gradientUnits="userSpaceOnUse">
<stop stop-color="#00BEFB"/>
<stop offset="1" stop-color="#5EEBFF"/>
</linearGradient>
</defs>
</svg>
