<svg width="24" height="24" viewBox="0 0 24 24" fill="none" xmlns="http://www.w3.org/2000/svg">
<path d="M9.70141 2.79308C10.8922 1.34609 13.1078 1.34609 14.2986 2.79308C14.9285 3.55855 15.8982 3.9602 16.8849 3.86438C18.7501 3.68323 20.3168 5.24987 20.1356 7.11507C20.0398 8.10178 20.4414 9.07146 21.2069 9.70141C22.6539 10.8922 22.6539 13.1078 21.2069 14.2986C20.4414 14.9285 20.0398 15.8982 20.1356 16.8849C20.3168 18.7501 18.7501 20.3168 16.8849 20.1356C15.8982 20.0398 14.9285 20.4414 14.2986 21.2069C13.1078 22.6539 10.8922 22.6539 9.70141 21.2069C9.07146 20.4414 8.10178 20.0398 7.11507 20.1356C5.24987 20.3168 3.68323 18.7501 3.86438 16.8849C3.9602 15.8982 3.55855 14.9285 2.79308 14.2986C1.34609 13.1078 1.34609 10.8922 2.79308 9.70141C3.55855 9.07146 3.9602 8.10178 3.86438 7.11507C3.68323 5.24987 5.24987 3.68323 7.11507 3.86438C8.10178 3.9602 9.07146 3.55855 9.70141 2.79308Z" fill="#3BD4FF" stroke="#5EEBFF"/>
<g filter="url(#filter0_d_60_1157)">
<path d="M8.70711 10.7929C8.31658 10.4024 7.68342 10.4024 7.29289 10.7929C6.90237 11.1834 6.90237 11.8166 7.29289 12.2071L8.70711 10.7929ZM11 14.5L10.2929 15.2071C10.6834 15.5976 11.3166 15.5976 11.7071 15.2071L11 14.5ZM17.2071 9.70711C17.5976 9.31658 17.5976 8.68342 17.2071 8.29289C16.8166 7.90237 16.1834 7.90237 15.7929 8.29289L17.2071 9.70711ZM7.29289 12.2071L10.2929 15.2071L11.7071 13.7929L8.70711 10.7929L7.29289 12.2071ZM11.7071 15.2071L17.2071 9.70711L15.7929 8.29289L10.2929 13.7929L11.7071 15.2071Z" fill="white"/>
</g>
<defs>
<filter id="filter0_d_60_1157" x="5" y="6" width="14.5" height="11.5" filterUnits="userSpaceOnUse" color-interpolation-filters="sRGB">
<feFlood flood-opacity="0" result="BackgroundImageFix"/>
<feColorMatrix in="SourceAlpha" type="matrix" values="0 0 0 0 0 0 0 0 0 0 0 0 0 0 0 0 0 0 127 0" result="hardAlpha"/>
<feOffset/>
<feGaussianBlur stdDeviation="1"/>
<feComposite in2="hardAlpha" operator="out"/>
<feColorMatrix type="matrix" values="0 0 0 0 0 0 0 0 0 0.338437 0 0 0 0 0.483482 0 0 0 0.4 0"/>
<feBlend mode="normal" in2="BackgroundImageFix" result="effect1_dropShadow_60_1157"/>
<feBlend mode="normal" in="SourceGraphic" in2="effect1_dropShadow_60_1157" result="shape"/>
</filter>
</defs>
</svg>
